<?xml version="1.0" standalone="no"?>
<!DOCTYPE svg PUBLIC "-//W3C//DTD SVG 20010904//EN"
 "http://www.w3.org/TR/2001/REC-SVG-20010904/DTD/svg10.dtd">
<svg version="1.0" xmlns="http://www.w3.org/2000/svg"
 width="365.000000pt" height="365.000000pt" viewBox="0 0 365.000000 365.000000"
 preserveAspectRatio="xMidYMid meet">
<metadata>
Created by potrace 1.14, written by Peter Selinger 2001-2017
</metadata>
<g transform="translate(0.000000,365.000000) scale(0.100000,-0.100000)"
fill="#000000" stroke="none">
<path d="M1737 3644 c-1 -1 -36 -4 -77 -8 -41 -3 -86 -8 -100 -11 -14 -3 -43
-8 -65 -11 -130 -19 -332 -87 -484 -163 -197 -99 -319 -188 -482 -352 -80 -80
-234 -273 -246 -308 -4 -9 -12 -23 -19 -31 -27 -32 -124 -239 -159 -340 -72
-209 -100 -381 -99 -615 1 -148 7 -209 35 -349 143 -711 704 -1273 1417 -1421
124 -26 179 -30 392 -29 171 0 224 4 319 23 614 121 1117 534 1348 1107 48
118 66 174 87 274 36 167 41 213 41 410 0 199 -8 273 -50 458 -17 75 -84 252
-130 344 -50 101 -163 284 -196 318 -8 8 -24 28 -37 44 -80 104 -255 262 -389
352 -171 114 -439 230 -611 264 -26 5 -58 12 -72 15 -30 6 -73 12 -154 21 -55
6 -264 12 -269 8z"/>
</g>
</svg>
